<?xml version="1.0" encoding="iso-8859-1"?>
<!-- Uploaded to: SVG Repo, www.svgrepo.com, Generator: SVG Repo Mixer Tools -->
<svg height="800px" width="800px" version="1.1" id="Layer_1" xmlns="http://www.w3.org/2000/svg" xmlns:xlink="http://www.w3.org/1999/xlink" 
	 viewBox="0 0 512 512" xml:space="preserve">
<path style="fill:#EFEFEF;" d="M379.983,118.046c-0.281,19.676-16.751,35.287-36.422,35.287H188.031
	c-29.14,0-53.266-23.663-52.683-52.803c0.562-28.093,23.513-50.695,51.741-50.695c1.749,0,3.472,0.088,5.179,0.26
	c7.777-19.395,24.887-34.048,45.776-38.379c4.159-0.864,8.469-1.317,12.888-1.317c5.825,0,11.467,0.791,16.824,2.27
	c26.729,7.36,46.364,31.846,46.364,60.918c0,2.061-0.099,4.097-0.302,6.116c6.939-4.117,15.095-6.382,23.809-6.095
	c2.624,0.088,5.19,0.406,7.683,0.947c10.187,2.186,19.098,7.969,25.334,15.918c5.674,7.225,9.13,16.246,9.333,26.001
	C379.988,117,379.988,117.526,379.983,118.046z"/>
<g>
	<path style="fill:#FBC640;" d="M163.292,338.454H47.839c-8.699,0-15.75-7.052-15.75-15.75v-99.082h48.357l25.12,24.607h73.478
		v74.475C179.043,331.403,171.991,338.454,163.292,338.454z"/>
	<path style="fill:#FBC640;" d="M464.161,338.454H348.709c-8.699,0-15.75-7.052-15.75-15.75v-99.082h48.357l25.12,24.607h73.478
		v74.475C479.912,331.403,472.86,338.454,464.161,338.454z"/>
	<path style="fill:#FBC640;" d="M315.388,501.588H199.935c-8.699,0-15.75-7.052-15.75-15.75v-99.082h48.357l25.12,24.607h73.478
		v74.475C331.138,494.536,324.087,501.588,315.388,501.588z"/>
</g>
<g>
	<path style="fill:#231F20;" d="M479.912,237.819h-69.228L388.6,216.186c-1.946-1.906-4.561-2.973-7.285-2.973h-3.65l-28.045-49.871
		c22.655-2.935,40.443-22.054,40.773-45.145c0-0.012,0-0.024,0-0.036c0.006-0.628,0.006-1.262-0.006-1.9
		c-0.245-11.76-4.24-22.899-11.551-32.211c-7.875-10.037-19.005-17.023-31.319-19.666c-3.099-0.673-6.309-1.068-9.548-1.177
		c-4.742-0.162-9.44,0.303-13.996,1.351c-3.623-29.202-24.587-53.975-53.447-61.922c-11.201-3.092-23.26-3.465-34.595-1.111
		c-21.731,4.504-40.033,18.456-50.205,37.914c-15.876,0.34-30.808,6.623-42.176,17.778c-11.676,11.458-18.285,26.766-18.612,43.104
		c-0.332,16.617,5.958,32.372,17.714,44.364c6.944,7.084,15.491,12.385,24.782,15.579l-43.612,77.554h-14.007l-22.084-21.633
		c-1.946-1.906-4.561-2.973-7.285-2.973H32.088c-5.75,0-10.411,4.662-10.411,10.411v99.082c0,14.425,11.736,26.162,26.161,26.162
		h115.454c14.425,0,26.161-11.736,26.161-26.162V248.23c0-5.749-4.661-10.411-10.411-10.411h-31.334l41.655-74.075h136.596
		l27.818,49.468h-20.819c-5.75,0-10.411,4.662-10.411,10.411v99.082c0,14.425,11.736,26.162,26.161,26.162h115.452
		c14.425,0,26.161-11.736,26.161-26.162v-74.474C490.323,242.48,485.662,237.819,479.912,237.819z M168.633,322.704
		c0,2.945-2.395,5.341-5.34,5.341H47.839c-2.944,0-5.34-2.395-5.34-5.341v-88.671h33.696l22.084,21.633
		c1.946,1.906,4.561,2.973,7.285,2.973h63.067V322.704z M145.756,100.739c0.447-22.328,18.988-40.493,41.333-40.493
		c1.366,0,2.76,0.07,4.143,0.208c4.611,0.47,8.974-2.182,10.699-6.485c6.609-16.481,20.898-28.466,38.23-32.06
		c8.123-1.688,16.791-1.422,24.831,0.797c22.796,6.276,38.717,27.199,38.717,50.88c0,1.717-0.084,3.425-0.25,5.076
		c-0.393,3.909,1.449,7.705,4.762,9.818c3.313,2.112,7.532,2.181,10.909,0.175c5.473-3.247,11.744-4.861,18.146-4.643
		c1.985,0.067,3.946,0.308,5.849,0.72c7.587,1.628,14.452,5.95,19.332,12.168c4.504,5.735,6.963,12.578,7.113,19.783
		c0.008,0.413,0.008,0.827,0.003,1.237c-0.211,13.787-11.874,25-26.011,25h-11.654c-0.01,0-0.021,0-0.032,0H188.031
		c-11.577,0-22.412-4.549-30.51-12.811C149.714,122.146,145.537,111.716,145.756,100.739z M469.502,322.704
		c0,2.945-2.396,5.341-5.34,5.341H348.709c-2.944,0-5.34-2.395-5.34-5.341v-88.671h33.696l22.084,21.633
		c1.946,1.906,4.561,2.973,7.285,2.973h63.067V322.704z"/>
	<path style="fill:#231F20;" d="M331.138,400.952h-65.024c0.024-0.286,0.044-0.576,0.044-0.868V252.792
		c0-5.749-4.661-10.411-10.411-10.411c-5.75,0-10.411,4.662-10.411,10.411v131.925l-5.51-5.399
		c-1.946-1.906-4.561-2.973-7.285-2.973h-48.357c-5.75,0-10.411,4.662-10.411,10.411v99.083c0,14.425,11.736,26.161,26.161,26.161
		h115.453c14.425,0,26.161-11.735,26.161-26.161v-74.475C341.549,405.614,336.888,400.952,331.138,400.952z M320.728,485.837
		c0,2.944-2.396,5.34-5.34,5.34H199.936c-2.944,0-5.34-2.396-5.34-5.34v-88.672h33.696l22.084,21.633
		c1.946,1.906,4.561,2.973,7.285,2.973h63.067v64.065H320.728z"/>
	<path style="fill:#231F20;" d="M255.748,216.335c5.75,0,10.411-4.662,10.411-10.411v-2.082c0-5.749-4.661-10.411-10.411-10.411
		c-5.75,0-10.411,4.662-10.411,10.411v2.082C245.338,211.674,249.999,216.335,255.748,216.335z"/>
</g>
</svg>